<svg xmlns="http://www.w3.org/2000/svg" xmlns:xlink="http://www.w3.org/1999/xlink" width="127" height="65.14" viewBox="0 0 127 65.14"><defs><style>.cls-1{opacity:0.19;}.cls-2{fill:#fff;}.cls-3{fill:url(#linear-gradient);}.cls-4{fill:url(#linear-gradient-2);}.cls-5{fill:url(#linear-gradient-3);}.cls-6{fill:url(#linear-gradient-4);}.cls-7{fill:url(#linear-gradient-5);}.cls-8{fill:url(#linear-gradient-6);}.cls-9{fill:url(#linear-gradient-7);}.cls-10{fill:url(#linear-gradient-8);}.cls-11{fill:url(#linear-gradient-9);}.cls-12{fill:url(#linear-gradient-10);}.cls-13{fill:url(#linear-gradient-11);}.cls-14{fill:url(#linear-gradient-12);}.cls-15{fill:url(#linear-gradient-13);}.cls-16{fill:url(#linear-gradient-14);}</style><linearGradient id="linear-gradient" x1="115.08" y1="40.32" x2="22.4" y2="54.49" gradientUnits="userSpaceOnUse"><stop offset="0" stop-color="#0c94e8"/><stop offset="1" stop-color="#2941d3"/></linearGradient><linearGradient id="linear-gradient-2" x1="115.57" y1="43.54" x2="22.89" y2="57.71" xlink:href="#linear-gradient"/><linearGradient id="linear-gradient-3" x1="115.57" y1="43.5" x2="22.89" y2="57.67" xlink:href="#linear-gradient"/><linearGradient id="linear-gradient-4" x1="115.95" y1="46.01" x2="23.27" y2="60.18" xlink:href="#linear-gradient"/><linearGradient id="linear-gradient-5" x1="116.71" y1="50.98" x2="24.03" y2="65.15" xlink:href="#linear-gradient"/><linearGradient id="linear-gradient-6" x1="117.21" y1="54.23" x2="24.53" y2="68.4" xlink:href="#linear-gradient"/><linearGradient id="linear-gradient-7" y1="36.35" x2="127" y2="36.35" gradientUnits="userSpaceOnUse"><stop offset="0" stop-color="#d6ba1a"/><stop offset="1" stop-color="#14cadd"/></linearGradient><linearGradient id="linear-gradient-8" x1="2.43" y1="13.29" x2="118.28" y2="30.33" gradientUnits="userSpaceOnUse"><stop offset="0" stop-color="#ff9e1d"/><stop offset="1" stop-color="#f15a24"/></linearGradient><linearGradient id="linear-gradient-9" x1="2.83" y1="10.56" x2="118.68" y2="27.6" xlink:href="#linear-gradient-8"/><linearGradient id="linear-gradient-10" x1="3.4" y1="6.68" x2="119.25" y2="23.72" xlink:href="#linear-gradient-8"/><linearGradient id="linear-gradient-11" x1="3.71" y1="4.59" x2="119.56" y2="21.63" xlink:href="#linear-gradient-8"/><linearGradient id="linear-gradient-12" x1="4.2" y1="1.23" x2="120.05" y2="18.27" xlink:href="#linear-gradient-8"/><linearGradient id="linear-gradient-13" x1="5.42" y1="-7.05" x2="121.27" y2="10" xlink:href="#linear-gradient-8"/><linearGradient id="linear-gradient-14" x1="4.45" y1="-0.46" x2="120.3" y2="16.58" xlink:href="#linear-gradient-8"/></defs><g id="Layer_2" data-name="Layer 2"><g id="Layer_1-2" data-name="Layer 1"><g class="cls-1"><rect x="1" y="35.35" width="125" height="4"/><path d="M125,36.35v2H2v-2H125m2-2H0v6H127v-6Z"/></g><g class="cls-1"><path d="M18.15,64.14A6.88,6.88,0,0,1,12.86,62a8,8,0,0,1-2-5.66v-.16a8.84,8.84,0,0,1,.86-3.94,6.55,6.55,0,0,1,2.56-2.8,7.4,7.4,0,0,1,3.81-1,7,7,0,0,1,5.06,1.91,7.58,7.58,0,0,1,2.19,5.1l0,.94a7.91,7.91,0,0,1-2,5.58A6.88,6.88,0,0,1,18.15,64.14Zm0-10.85a1.32,1.32,0,0,0-1.18.58,4.52,4.52,0,0,0-.53,2.55,4,4,0,0,0,.53,2.3,1.33,1.33,0,0,0,1.21.58,1.34,1.34,0,0,0,1.19-.58,4.33,4.33,0,0,0,.53-2.55,4,4,0,0,0-.54-2.29A1.34,1.34,0,0,0,18.12,53.29Z"/><path d="M18.12,49.45a6,6,0,0,1,4.37,1.63,6.55,6.55,0,0,1,1.88,4.45l0,.9a6.92,6.92,0,0,1-1.7,4.88,5.91,5.91,0,0,1-4.55,1.83,5.91,5.91,0,0,1-4.56-1.83,7,7,0,0,1-1.7-5v-.16a7.89,7.89,0,0,1,.75-3.5,5.53,5.53,0,0,1,2.18-2.38,6.38,6.38,0,0,1,3.3-.84m0,10.85a2.35,2.35,0,0,0,2-1,5.42,5.42,0,0,0,.72-3.15,4.87,4.87,0,0,0-.72-2.86,2.34,2.34,0,0,0-2-1,2.31,2.31,0,0,0-2,1,5.49,5.49,0,0,0-.71,3.12,4.94,4.94,0,0,0,.71,2.88,2.33,2.33,0,0,0,2,1m0-12.85a8.31,8.31,0,0,0-4.32,1.12,7.54,7.54,0,0,0-3,3.22,9.78,9.78,0,0,0-1,4.38v.16a8.94,8.94,0,0,0,2.24,6.34,7.85,7.85,0,0,0,6,2.47,7.83,7.83,0,0,0,6-2.48,8.84,8.84,0,0,0,2.23-6.23v0l0-.91v-.08a8.54,8.54,0,0,0-2.49-5.74,8,8,0,0,0-5.76-2.2Zm0,10.85c-.29,0-.33-.07-.4-.15a3.1,3.1,0,0,1-.34-1.73,3.6,3.6,0,0,1,.35-2c.07-.11.11-.16.36-.16s.32.07.4.17a3,3,0,0,1,.35,1.71,3.66,3.66,0,0,1-.33,2c-.08.11-.12.17-.39.17Z"/><path d="M40.87,63.9V54.45c0-.67-.16-.88-.21-.93a1.37,1.37,0,0,0-.9-.2,1.41,1.41,0,0,0-1.23.56v10H33V48.69h5.25l0,.49a5.83,5.83,0,0,1,2.94-.73A4.79,4.79,0,0,1,45.12,50a6.74,6.74,0,0,1,1.28,4.32V63.9Z"/><path d="M41.22,49.45a3.84,3.84,0,0,1,3.13,1.23,5.79,5.79,0,0,1,1,3.69V62.9H41.87V54.45a2.27,2.27,0,0,0-.49-1.63,2.15,2.15,0,0,0-1.62-.5,2.41,2.41,0,0,0-2.23,1.27V62.9H34V49.69h3.32l.11,1.53a4.6,4.6,0,0,1,3.79-1.77m0-2a7.18,7.18,0,0,0-2,.28v0H32V64.9h7.53V54.34a.75.75,0,0,1,.23,0h.11V64.9H47.4V54.37a7.71,7.71,0,0,0-1.51-5,5.76,5.76,0,0,0-4.67-1.95Z"/><rect x="54.76" y="43.15" width="5.54" height="20.75"/><path d="M59.3,44.15V62.9H55.76V44.15H59.3m2-2H53.76V64.9H61.3V42.15Z"/><path d="M68.88,63.9V48.69H70a2.94,2.94,0,0,1-.5-.37,2.89,2.89,0,0,1,0-4.07,3,3,0,0,1,2.14-.8,3,3,0,0,1,2.14.79,2.75,2.75,0,0,1,.84,2,2.72,2.72,0,0,1-.86,2,2.52,2.52,0,0,1-.49.37h1.14V63.9Z"/><path d="M71.65,44.45A2,2,0,0,1,73.1,45a1.87,1.87,0,0,1,0,2.62,2.27,2.27,0,0,1-2.87,0,1.73,1.73,0,0,1-.54-1.32,1.7,1.7,0,0,1,.53-1.3,2,2,0,0,1,1.44-.52m1.77,5.24V62.9H69.88V49.69h3.54m-1.77-7.24a4,4,0,0,0-2.83,1.08,3.71,3.71,0,0,0-1.14,2.74,3.89,3.89,0,0,0,.25,1.42h-.05V64.9h7.54V47.69h0a3.89,3.89,0,0,0,.25-1.42,3.72,3.72,0,0,0-1.15-2.75,4,4,0,0,0-2.83-1.07Z"/><path d="M90.63,63.9V54.45c0-.67-.16-.88-.21-.93a1.37,1.37,0,0,0-.9-.2,1.42,1.42,0,0,0-1.24.56v10H82.76V48.69H88l0,.49A5.83,5.83,0,0,1,91,48.45,4.79,4.79,0,0,1,94.88,50a6.74,6.74,0,0,1,1.28,4.32V63.9Z"/><path d="M91,49.45a3.86,3.86,0,0,1,3.13,1.23,5.79,5.79,0,0,1,1,3.69V62.9H91.63V54.45a2.27,2.27,0,0,0-.49-1.63,2.15,2.15,0,0,0-1.62-.5,2.44,2.44,0,0,0-2.24,1.27V62.9H83.76V49.69h3.32l.11,1.53A4.6,4.6,0,0,1,91,49.45m0-2a7.13,7.13,0,0,0-2,.28v0H81.76V64.9h7.52V54.34a.82.82,0,0,1,.24,0h.11V64.9h7.53V54.37a7.71,7.71,0,0,0-1.51-5A5.79,5.79,0,0,0,91,47.45Z"/><path d="M111.41,64.14A7.49,7.49,0,0,1,106,62.08a7.34,7.34,0,0,1-2.12-5.47v-.34a9,9,0,0,1,.87-4,6.57,6.57,0,0,1,2.56-2.83,7.1,7.1,0,0,1,3.73-1,6.47,6.47,0,0,1,5,2A8,8,0,0,1,117.84,56v2.44h-2l2,2.25-.46.65a6.31,6.31,0,0,1-2.55,2.08A8,8,0,0,1,111.41,64.14Zm-1.57-5.7a1.59,1.59,0,0,0,.3.34,2.11,2.11,0,0,0,1.5.52,2.81,2.81,0,0,0,2.2-.86Zm2.42-4.4a1.09,1.09,0,0,0-.25-.42,1.53,1.53,0,0,0-2,.06,2.07,2.07,0,0,0-.25.36Z"/><path d="M111,49.45a5.49,5.49,0,0,1,4.27,1.71A7,7,0,0,1,116.84,56v1.44h-8.41a3.32,3.32,0,0,0,1,2.08,3.13,3.13,0,0,0,2.18.78,3.81,3.81,0,0,0,3.19-1.48l1.73,1.94a5.18,5.18,0,0,1-2.15,1.75,7,7,0,0,1-3,.63,6.47,6.47,0,0,1-4.73-1.78,6.32,6.32,0,0,1-1.82-4.75v-.34a8,8,0,0,1,.76-3.56,5.67,5.67,0,0,1,2.18-2.41,6.1,6.1,0,0,1,3.22-.85M108.47,55h4.91v-.28a2.6,2.6,0,0,0-.64-1.82,2.27,2.27,0,0,0-1.73-.65,2.24,2.24,0,0,0-1.71.71,3.75,3.75,0,0,0-.83,2M111,47.45a8.14,8.14,0,0,0-4.25,1.13,7.66,7.66,0,0,0-2.94,3.25,9.94,9.94,0,0,0-1,4.44v.34a8.28,8.28,0,0,0,2.42,6.18,8.45,8.45,0,0,0,6.13,2.35,9.1,9.1,0,0,0,3.85-.81,7.49,7.49,0,0,0,2.94-2.41l.91-1.3-1-1.18h.78V56a8.88,8.88,0,0,0-2.08-6.19A7.4,7.4,0,0,0,111,47.45Z"/></g><path class="cls-2" d="M10.89,55.17a7.89,7.89,0,0,1,.75-3.5,5.53,5.53,0,0,1,2.18-2.38,6.38,6.38,0,0,1,3.3-.84,6,6,0,0,1,4.37,1.63,6.55,6.55,0,0,1,1.88,4.45l0,.9a6.92,6.92,0,0,1-1.7,4.88,5.91,5.91,0,0,1-4.55,1.83,5.91,5.91,0,0,1-4.56-1.83,7,7,0,0,1-1.7-5Zm3.52.25a4.94,4.94,0,0,0,.71,2.88,2.33,2.33,0,0,0,2,1,2.35,2.35,0,0,0,2-1,5.42,5.42,0,0,0,.72-3.15,4.87,4.87,0,0,0-.72-2.86,2.34,2.34,0,0,0-2-1,2.31,2.31,0,0,0-2,1A5.49,5.49,0,0,0,14.41,55.42Z"/><path class="cls-3" d="M17.12,48.45a6,6,0,0,1,4.37,1.63,6.55,6.55,0,0,1,1.88,4.45l0,.9a6.92,6.92,0,0,1-1.7,4.88,5.91,5.91,0,0,1-4.55,1.83,5.91,5.91,0,0,1-4.56-1.83,7,7,0,0,1-1.7-5v-.16a7.89,7.89,0,0,1,.75-3.5,5.53,5.53,0,0,1,2.18-2.38,6.38,6.38,0,0,1,3.3-.84m0,10.85a2.35,2.35,0,0,0,2-1,5.42,5.42,0,0,0,.72-3.15,4.87,4.87,0,0,0-.72-2.86,2.34,2.34,0,0,0-2-1,2.31,2.31,0,0,0-2,1,5.49,5.49,0,0,0-.71,3.12,4.94,4.94,0,0,0,.71,2.88,2.33,2.33,0,0,0,2,1m0-12.85a8.31,8.31,0,0,0-4.32,1.12,7.54,7.54,0,0,0-3,3.22,9.78,9.78,0,0,0-1,4.38v.16a8.94,8.94,0,0,0,2.24,6.34,7.85,7.85,0,0,0,6,2.47,7.83,7.83,0,0,0,6-2.48,8.84,8.84,0,0,0,2.23-6.23v0l0-.91v-.08a8.54,8.54,0,0,0-2.49-5.74,8,8,0,0,0-5.76-2.2Zm0,10.85c-.29,0-.33-.07-.4-.15a3.1,3.1,0,0,1-.34-1.73,3.6,3.6,0,0,1,.35-2c.07-.11.11-.16.36-.16s.32.07.4.17a3,3,0,0,1,.35,1.71,3.66,3.66,0,0,1-.33,2c-.08.11-.12.17-.39.17Z"/><path class="cls-2" d="M36.32,48.69l.11,1.53a4.6,4.6,0,0,1,3.79-1.77,3.84,3.84,0,0,1,3.13,1.23,5.79,5.79,0,0,1,1,3.69V61.9H40.87V53.45a2.27,2.27,0,0,0-.49-1.63,2.15,2.15,0,0,0-1.62-.5,2.41,2.41,0,0,0-2.23,1.27V61.9H33V48.69Z"/><path class="cls-4" d="M40.22,48.45a3.84,3.84,0,0,1,3.13,1.23,5.79,5.79,0,0,1,1,3.69V61.9H40.87V53.45a2.27,2.27,0,0,0-.49-1.63,2.15,2.15,0,0,0-1.62-.5,2.41,2.41,0,0,0-2.23,1.27V61.9H33V48.69h3.32l.11,1.53a4.6,4.6,0,0,1,3.79-1.77m0-2a7.18,7.18,0,0,0-2,.28v0H31V63.9h7.53V53.34a.75.75,0,0,1,.23,0h.11V63.9H46.4V53.37a7.71,7.71,0,0,0-1.51-5,5.76,5.76,0,0,0-4.67-1.95Z"/><path class="cls-2" d="M58.3,61.9H54.76V43.15H58.3Z"/><path class="cls-5" d="M58.3,43.15V61.9H54.76V43.15H58.3m2-2H52.76V63.9H60.3V41.15Z"/><path class="cls-2" d="M68.68,45.27a1.7,1.7,0,0,1,.53-1.3,2,2,0,0,1,1.44-.52A2,2,0,0,1,72.1,44a1.87,1.87,0,0,1,0,2.62,2.27,2.27,0,0,1-2.87,0A1.73,1.73,0,0,1,68.68,45.27ZM72.42,61.9H68.88V48.69h3.54Z"/><path class="cls-6" d="M70.65,43.45A2,2,0,0,1,72.1,44a1.87,1.87,0,0,1,0,2.62,2.27,2.27,0,0,1-2.87,0,1.73,1.73,0,0,1-.54-1.32,1.7,1.7,0,0,1,.53-1.3,2,2,0,0,1,1.44-.52m1.77,5.24V61.9H68.88V48.69h3.54m-1.77-7.24a4,4,0,0,0-2.83,1.08,3.71,3.71,0,0,0-1.14,2.74,3.89,3.89,0,0,0,.25,1.42h-.05V63.9h7.54V46.69h0a3.89,3.89,0,0,0,.25-1.42,3.72,3.72,0,0,0-1.15-2.75,4,4,0,0,0-2.83-1.07Z"/><path class="cls-2" d="M86.08,48.69l.11,1.53A4.6,4.6,0,0,1,90,48.45a3.86,3.86,0,0,1,3.13,1.23,5.79,5.79,0,0,1,1,3.69V61.9H90.63V53.45a2.27,2.27,0,0,0-.49-1.63,2.15,2.15,0,0,0-1.62-.5,2.44,2.44,0,0,0-2.24,1.27V61.9H82.76V48.69Z"/><path class="cls-7" d="M90,48.45a3.86,3.86,0,0,1,3.13,1.23,5.79,5.79,0,0,1,1,3.69V61.9H90.63V53.45a2.27,2.27,0,0,0-.49-1.63,2.15,2.15,0,0,0-1.62-.5,2.44,2.44,0,0,0-2.24,1.27V61.9H82.76V48.69h3.32l.11,1.53A4.6,4.6,0,0,1,90,48.45m0-2a7.13,7.13,0,0,0-2,.28v0H80.76V63.9h7.52V53.34a.82.82,0,0,1,.24,0h.11V63.9h7.53V53.37a7.71,7.71,0,0,0-1.51-5A5.79,5.79,0,0,0,90,46.45Z"/><path class="cls-2" d="M110.41,62.14a6.47,6.47,0,0,1-4.73-1.78,6.32,6.32,0,0,1-1.82-4.75v-.34a8,8,0,0,1,.76-3.56,5.67,5.67,0,0,1,2.18-2.41,6.1,6.1,0,0,1,3.22-.85,5.49,5.49,0,0,1,4.27,1.71A7,7,0,0,1,115.84,55v1.44h-8.41a3.32,3.32,0,0,0,1,2.08,3.13,3.13,0,0,0,2.18.78,3.81,3.81,0,0,0,3.19-1.48l1.73,1.94a5.18,5.18,0,0,1-2.15,1.75A7,7,0,0,1,110.41,62.14ZM110,51.29a2.24,2.24,0,0,0-1.71.71,3.75,3.75,0,0,0-.83,2h4.91v-.28a2.6,2.6,0,0,0-.64-1.82A2.27,2.27,0,0,0,110,51.29Z"/><path class="cls-8" d="M110,48.45a5.49,5.49,0,0,1,4.27,1.71A7,7,0,0,1,115.84,55v1.44h-8.41a3.32,3.32,0,0,0,1,2.08,3.13,3.13,0,0,0,2.18.78,3.81,3.81,0,0,0,3.19-1.48l1.73,1.94a5.18,5.18,0,0,1-2.15,1.75,7,7,0,0,1-3,.63,6.47,6.47,0,0,1-4.73-1.78,6.32,6.32,0,0,1-1.82-4.75v-.34a8,8,0,0,1,.76-3.56,5.67,5.67,0,0,1,2.18-2.41,6.1,6.1,0,0,1,3.22-.85M107.47,54h4.91v-.28a2.6,2.6,0,0,0-.64-1.82,2.27,2.27,0,0,0-1.73-.65,2.24,2.24,0,0,0-1.71.71,3.75,3.75,0,0,0-.83,2M110,46.45a8.14,8.14,0,0,0-4.25,1.13,7.66,7.66,0,0,0-2.94,3.25,9.94,9.94,0,0,0-1,4.44v.34a8.28,8.28,0,0,0,2.42,6.18,8.45,8.45,0,0,0,6.13,2.35,9.1,9.1,0,0,0,3.85-.81,7.49,7.49,0,0,0,2.94-2.41l.91-1.3-1-1.18h.78V55a8.88,8.88,0,0,0-2.08-6.19A7.4,7.4,0,0,0,110,46.45Z"/><rect class="cls-2" x="2" y="35.35" width="123" height="2"/><path class="cls-9" d="M125,35.35v2H2v-2H125m2-2H0v6H127v-6Z"/><g class="cls-1"><polygon points="14.13 31.77 14.13 5.99 4.64 5.99 4.64 2.01 27.99 2.01 27.99 5.99 18.48 5.99 18.48 31.77 14.13 31.77"/><path d="M27,3V5H17.48V30.77H15.13V5H5.64V3H27m2-2H3.64V7h9.49V32.77h6.35V7H29V1Z"/><polygon points="30.47 31.77 30.47 2.01 49.65 2.01 49.65 5.99 34.82 5.99 34.82 14.48 47.8 14.48 47.8 18.46 34.82 18.46 34.82 27.78 49.74 27.78 49.74 31.77 30.47 31.77"/><path d="M48.65,3V5H33.82V15.48h13v2h-13V28.78H48.74v2H31.47V3H48.65m2-2H29.47V32.77H50.74v-6H35.82V19.46h13v-6h-13V7H50.65V1Z"/><polygon points="60.04 31.77 60.04 5.99 50.55 5.99 50.55 2.01 73.9 2.01 73.9 5.99 64.39 5.99 64.39 31.77 60.04 31.77"/><path d="M72.9,3V5H63.38V30.77H61V5H51.55V3H72.9m2-2H49.55V7H59V32.77h6.34V7H74.9V1Z"/><path d="M93.88,31.77,87.17,20.19H80.69V31.77H76.32V2h10A11.28,11.28,0,0,1,93.93,4.4a8.52,8.52,0,0,1,2.85,6.78A8.55,8.55,0,0,1,95,16.49a9,9,0,0,1-3.52,2.74l6.47,11v1.52Zm-7-15.56a5.66,5.66,0,0,0,4.07-1.41,4.7,4.7,0,0,0,1.47-3.62,4.74,4.74,0,0,0-1.52-3.81A6.82,6.82,0,0,0,86.3,6H80.69V16.21Z"/><path d="M86.34,3a10.28,10.28,0,0,1,6.94,2.15,7.53,7.53,0,0,1,2.5,6,7.54,7.54,0,0,1-1.57,4.7A8,8,0,0,1,90,18.7L97,30.52v.25h-2.5L87.75,19.19H79.69V30.77H77.32V3h9m-6.65,14.2h7.18a6.66,6.66,0,0,0,4.75-1.68,5.71,5.71,0,0,0,1.79-4.35,5.73,5.73,0,0,0-1.87-4.57A7.73,7.73,0,0,0,86.3,5H79.69V17.21M86.34,1h-11V32.77h6.37V21.19H86.6l6.13,10.58.58,1H99V30l-.28-.46-5.79-9.87A9.71,9.71,0,0,0,95.8,17.1a9.51,9.51,0,0,0,2-5.92,9.47,9.47,0,0,0-3.2-7.54A12.24,12.24,0,0,0,86.34,1ZM81.69,7H86.3a5.89,5.89,0,0,1,3.93,1.13,3.66,3.66,0,0,1,1.18,3.06,3.7,3.7,0,0,1-1.16,2.89,4.69,4.69,0,0,1-3.38,1.14H81.69V7Z"/><path d="M119.33,31.77,116.45,24H105.24l-2.86,7.8h-4.6L109,2h3.61l11.26,29.76ZM115,20,110.84,8.76,106.7,20Z"/><path d="M112,3l10.51,27.76H120L117.15,23h-12.6l-2.86,7.8H99.23L109.73,3H112m-6.69,18H116.4L110.84,5.87,105.27,21m8.07-20h-5l-.49,1.29L97.36,30.06l-1,2.71h6.75l.48-1.32L105.94,25h9.81l2.4,6.49.48,1.31h6.73l-1-2.71L113.83,2.3,113.34,1Zm-5.2,18,2.7-7.33,2.7,7.33Z"/></g><path class="cls-2" d="M26,4H16.48V29.77H14.13V4H4.64V2H26Z"/><path class="cls-10" d="M26,2V4H16.48V29.77H14.13V4H4.64V2H26m2-2H2.64V6h9.49V31.77h6.35V6H28V0Z"/><path class="cls-2" d="M45.8,16.46h-13V27.78H47.74v2H30.47V2H47.65V4H32.82V14.48h13Z"/><path class="cls-11" d="M47.66,2V4H32.82V14.47h13v2h-13V27.78H47.74v2H30.46L30.48,2H47.66m2-2H28.48V2l0,27.76v2H49.73v-6H34.81V18.46h13v-6h-13V6H49.65V0Z"/><path class="cls-2" d="M71.9,4H62.38V29.77H60V4H50.55V2H71.9Z"/><path class="cls-12" d="M71.9,2V4H62.38V29.77H60V4H50.55V2H71.9m2-2H48.55V6H58V31.77h6.34V6H73.9V0Z"/><path class="cls-2" d="M86.75,18.19H78.69V29.77H76.32V2h9a10.28,10.28,0,0,1,6.94,2.15,7.53,7.53,0,0,1,2.5,6,7.54,7.54,0,0,1-1.57,4.7A8,8,0,0,1,89,17.7L96,29.52v.25h-2.5Zm-8.06-2h7.18a6.66,6.66,0,0,0,4.75-1.68,5.71,5.71,0,0,0,1.79-4.35,5.73,5.73,0,0,0-1.87-4.57A7.73,7.73,0,0,0,85.3,4H78.69Z"/><path class="cls-13" d="M85.34,2a10.28,10.28,0,0,1,6.94,2.15,7.53,7.53,0,0,1,2.5,6,7.54,7.54,0,0,1-1.57,4.7A8,8,0,0,1,89,17.7L96,29.52v.25h-2.5L86.75,18.19H78.69V29.77H76.32V2h9m-6.65,14.2h7.18a6.66,6.66,0,0,0,4.75-1.68,5.71,5.71,0,0,0,1.79-4.35,5.73,5.73,0,0,0-1.87-4.57A7.73,7.73,0,0,0,85.3,4H78.69V16.21M85.34,0h-11V31.77h6.37V20.19H85.6l6.13,10.58.58,1H98V29l-.28-.46-5.79-9.87A9.71,9.71,0,0,0,94.8,16.1a9.51,9.51,0,0,0,2-5.92,9.47,9.47,0,0,0-3.2-7.54A12.24,12.24,0,0,0,85.34,0ZM80.69,6H85.3a5.89,5.89,0,0,1,3.93,1.13,3.66,3.66,0,0,1,1.18,3.06,3.7,3.7,0,0,1-1.16,2.89,4.69,4.69,0,0,1-3.38,1.14H80.69V6Z"/><path class="cls-2" d="M116.15,22h-12.6l-2.86,7.8H98.23L108.73,2H111l10.51,27.76H119Zm-11.88-2H115.4L109.84,4.87Z"/><path class="cls-14" d="M111,2l10.51,27.76H119L116.15,22h-12.6l-2.86,7.8H98.23L108.73,2H111m-6.69,18H115.4L109.84,4.87,104.27,20m8.07-20h-5l-.49,1.29L96.36,29.06l-1,2.71h6.75l.48-1.32L104.94,24h9.81l2.4,6.49.48,1.31h6.73l-1-2.71L112.83,1.3,112.34,0Zm-5.2,18,2.7-7.33,2.7,7.33Z"/><rect class="cls-15" x="72.2" y="0.01" width="3" height="5.98"/><rect class="cls-16" x="26.99" width="1.93" height="5.99"/></g></g></svg>