<svg xmlns="http://www.w3.org/2000/svg" width="123.01" height="56.41" viewBox="0 0 123.01 56.41"><defs><style>.cls-1{fill:#6440d9;}.cls-2{fill:#3e6cd7;}</style></defs><g id="Layer_2" data-name="Layer 2"><g id="Layer_2-2" data-name="Layer 2"><path class="cls-1" d="M16.26,52.51a1.14,1.14,0,0,0-.64-1,7.87,7.87,0,0,0-2.06-.66c-3.14-.65-4.72-2-4.72-4a3.62,3.62,0,0,1,1.45-2.94,6,6,0,0,1,3.81-1.19,6.32,6.32,0,0,1,4,1.18A3.71,3.71,0,0,1,19.64,47H16.11a1.68,1.68,0,0,0-.49-1.25,2.08,2.08,0,0,0-1.53-.49,2.12,2.12,0,0,0-1.38.41,1.28,1.28,0,0,0-.48,1,1.1,1.1,0,0,0,.56,1,5.61,5.61,0,0,0,1.87.61,16.38,16.38,0,0,1,2.23.59c1.86.68,2.8,1.86,2.8,3.54a3.43,3.43,0,0,1-1.54,2.93,6.63,6.63,0,0,1-4,1.13,7.06,7.06,0,0,1-3-.58,5,5,0,0,1-2-1.62A3.76,3.76,0,0,1,8.44,52h3.34a1.86,1.86,0,0,0,.7,1.44,2.73,2.73,0,0,0,1.74.5,2.54,2.54,0,0,0,1.53-.39A1.21,1.21,0,0,0,16.26,52.51Z"/><path class="cls-1" d="M33.65,39.65V42.9h2.26v2.58H33.67l0,6.59A1.55,1.55,0,0,0,34,53.13a1.38,1.38,0,0,0,1.07.31,6.29,6.29,0,0,0,1-.08V56a7.3,7.3,0,0,1-2.14.32c-2.47,0-3.73-1.24-3.79-3.73l0-7.12H28.21V42.92h1.93V39.67Z"/><path class="cls-1" d="M53.33,54.71a4.45,4.45,0,0,1-3.61,1.6,4.2,4.2,0,0,1-3.25-1.21,5.28,5.28,0,0,1-1.15-3.58l0-8.65h3.52l0,8.54c0,1.38.63,2.06,1.89,2.06a2.55,2.55,0,0,0,2.46-1.25l0-9.37h3.54l0,13.21H53.43Z"/><path class="cls-1" d="M66.34,49.31a8,8,0,0,1,1.37-4.92,4.49,4.49,0,0,1,3.79-1.84A4,4,0,0,1,74.69,44l0-6.74h3.54L78.26,56H75.08l-.18-1.4a4.12,4.12,0,0,1-3.39,1.65,4.46,4.46,0,0,1-3.74-1.82A8.21,8.21,0,0,1,66.34,49.31Zm3.53.26a5.21,5.21,0,0,0,.65,2.84,2.14,2.14,0,0,0,1.89,1A2.37,2.37,0,0,0,74.71,52V46.79a2.35,2.35,0,0,0-2.29-1.38C70.71,45.42,69.86,46.8,69.87,49.57Z"/><path class="cls-1" d="M88.42,39.32A1.75,1.75,0,0,1,89,38a2,2,0,0,1,1.45-.52,2,2,0,0,1,1.44.51,1.7,1.7,0,0,1,.54,1.3,1.73,1.73,0,0,1-.54,1.32,2,2,0,0,1-1.43.52A2,2,0,0,1,89,40.64,1.78,1.78,0,0,1,88.42,39.32Zm3.8,16.62H88.68l0-13.21h3.54Z"/><path class="cls-1" d="M102.06,49.18a7.76,7.76,0,0,1,.74-3.5A5.59,5.59,0,0,1,105,43.29a6.38,6.38,0,0,1,3.3-.85,6.05,6.05,0,0,1,4.37,1.62,6.56,6.56,0,0,1,1.9,4.44l0,.9a7,7,0,0,1-1.68,4.89,6.58,6.58,0,0,1-9.12,0,7,7,0,0,1-1.71-5Zm3.52.24a5,5,0,0,0,.72,2.88,2.55,2.55,0,0,0,4,0,5.39,5.39,0,0,0,.71-3.15,4.89,4.89,0,0,0-.73-2.86,2.51,2.51,0,0,0-4,0A5.5,5.5,0,0,0,105.58,49.42Z"/><path class="cls-2" d="M24.41,2.23l-9.52,0L15,28H12.62L12.55,2.26l-9.5,0v-2L24.4.25Z"/><path class="cls-2" d="M44.25,14.64l-13,0L31.3,26l14.93,0v2L29,28,28.88.23,46.06.18v2l-14.83,0,0,10.49,13,0Z"/><path class="cls-2" d="M70.31,2.1l-9.51,0,.08,25.78H58.53L58.46,2.13l-9.5,0v-2L70.31.11Z"/><path class="cls-2" d="M85.21,16.26l-8.07,0,0,11.57H74.81L74.73.1l9,0a10.31,10.31,0,0,1,6.94,2.14,7.52,7.52,0,0,1,2.52,6,7.52,7.52,0,0,1-1.55,4.7,7.9,7.9,0,0,1-4.19,2.83l7,11.8v.25H92Zm-8.07-2,7.18,0a6.69,6.69,0,0,0,4.75-1.7,5.71,5.71,0,0,0,1.78-4.36A5.71,5.71,0,0,0,89,3.67a7.68,7.68,0,0,0-5.24-1.61l-6.62,0Z"/><path class="cls-2" d="M114.61,20,102,20l-2.83,7.81H96.72L107.14,0h2.23L120,27.73h-2.44ZM102.73,18l11.14,0L108.26,2.86Z"/><rect class="cls-1" y="31.48" width="123" height="2" transform="translate(-0.09 0.18) rotate(-0.17)"/></g></g></svg>